<?xml version="1.0" standalone="no"?><!DOCTYPE svg PUBLIC "-//W3C//DTD SVG 1.1//EN" "http://www.w3.org/Graphics/SVG/1.1/DTD/svg11.dtd"><svg t="1682488045544" class="icon" viewBox="0 0 1024 1024" version="1.1" xmlns="http://www.w3.org/2000/svg" p-id="10743" xmlns:xlink="http://www.w3.org/1999/xlink" width="128" height="128"><path d="M484.693333 938.666667a426.666667 426.666667 0 1 1 426.666667-426.666667 426.666667 426.666667 0 0 1-426.666667 426.666667z m0-768a341.333333 341.333333 0 1 0 341.333334 341.333333 341.333333 341.333333 0 0 0-341.333334-341.333333z" fill="#0E1216" p-id="10744"></path><path d="M523.733333 405.333333l-72.96 72.96-60.373333-60.373333 133.333333-133.333333L819.2 579.84a332.373333 332.373333 0 0 1-31.786667 88.96z" fill="#FFAC3D" p-id="10745"></path><path d="M181.76 355.2A339.413333 339.413333 0 0 0 149.333333 444.16l296.106667 295.253333 133.333333-133.333333-60.373333-60.373333L445.44 618.666667z" fill="#0E1216" p-id="10746"></path></svg>