<?xml version="1.0" standalone="no"?><!DOCTYPE svg PUBLIC "-//W3C//DTD SVG 1.1//EN" "http://www.w3.org/Graphics/SVG/1.1/DTD/svg11.dtd"><svg t="1682482300163" class="icon" viewBox="0 0 1026 1024" version="1.1" xmlns="http://www.w3.org/2000/svg" p-id="5253" xmlns:xlink="http://www.w3.org/1999/xlink" width="128.25" height="128"><path d="M367.974614 320.077924C184.977801 320.077924 0 264.255286 0 159.874963S184.978801 0 367.974614 0s367.974614 54.832644 367.974614 159.873963S550.970427 320.077924 367.974614 320.077924z m0-255.99634c-185.638796 0-303.893029 56.814632-303.89303 96.122377s118.584231 96.123377 303.89303 96.123377 303.893029-56.814632 303.893029-96.123377-118.254233-96.122377-303.893029-96.122377z m0 511.993681C184.977801 576.075265 0 520.911622 0 415.870303a33.031786 33.031786 0 0 1 64.081584 0c0 39.308745 118.584231 96.123377 303.89303 96.123377a792.764859 792.764859 0 0 0 127.503173-9.909936 33.031786 33.031786 0 0 1 10.239934 63.089591 858.826431 858.826431 0 0 1-137.743107 10.89993z m0 255.99634C184.977801 832.071605 0 776.908962 0 671.867643a33.031786 33.031786 0 0 1 64.081584 0c0 39.307745 118.584231 96.122377 303.89303 96.122377a792.764859 792.764859 0 0 0 127.503173-9.909936 33.031786 33.031786 0 0 1 10.239934 63.091591 855.194455 855.194455 0 0 1-137.743107 10.89993z m0 191.913755C184.977801 1023.98536 0 969.153716 0 864.111397a33.031786 33.031786 0 0 1 64.081584 0c0 39.307745 118.584231 96.123377 303.89303 96.123376a792.764859 792.764859 0 0 0 127.503173-9.909935 33.031786 33.031786 0 0 1 10.239934 63.090591 858.826431 858.826431 0 0 1-137.743107 10.569931z" p-id="5254"></path><path d="M703.908436 388.124483a33.031786 33.031786 0 0 1-33.031786-33.032786v-195.218734a33.031786 33.031786 0 0 1 64.081584 0v195.87873a33.031786 33.031786 0 0 1-31.049798 32.37279zM33.031786 896.152189A33.031786 33.031786 0 0 1 0 863.120403V159.873963a33.031786 33.031786 0 0 1 64.081584 0v704.237434a33.031786 33.031786 0 0 1-31.049798 32.040792z m766.999026-274.49322c-108.0143 0-223.955548-33.031786-223.955547-105.041319S692.347511 411.577331 800.030812 411.577331s223.954548 33.031786 223.954548 105.041319S907.714114 621.659969 800.030812 621.659969z m0-146.331051c-101.077345 0-156.239987 30.389803-160.203961 41.949728 3.963974 9.909936 59.126617 40.299739 160.203961 40.299738s153.599004-29.067812 159.872964-41.289732c-6.275959-11.891923-61.109604-40.959734-159.872964-40.959734z m160.203961 41.949728zM800.030812 767.99102c-108.0143 0-223.955548-33.031786-223.955547-105.041319a33.031786 33.031786 0 0 1 64.081584 0c3.963974 10.899929 58.796619 41.289732 159.873963 41.289732s156.239987-30.389803 160.203961-41.949728a33.031786 33.031786 0 0 1 33.031786-33.032785 33.031786 33.031786 0 0 1 33.031786 33.032785c-2.312985 72.669529-118.584231 105.701315-226.268533 105.701315z m0 146.330051c-108.0143 0-223.955548-33.031786-223.955547-105.040319a33.031786 33.031786 0 0 1 64.081584 0c3.963974 10.569931 59.126617 40.959734 159.873963 40.959735s156.239987-30.389803 160.203961-41.949728a33.031786 33.031786 0 0 1 33.031786-33.032786 33.031786 33.031786 0 0 1 33.031786 33.031786c-2.312985 72.999527-118.584231 106.031312-226.268533 106.031312z" p-id="5255"></path><path d="M800.030812 1023.98536c-108.0143 0-223.955548-33.031786-223.955547-105.041319a33.031786 33.031786 0 0 1 64.081584 0c3.963974 10.900929 58.796619 41.289732 159.873963 41.289732s156.239987-30.388803 160.203961-41.949727a33.031786 33.031786 0 0 1 33.031786-33.031786 33.031786 33.031786 0 0 1 33.031786 33.031786c-2.312985 72.669529-118.584231 105.701315-226.268533 105.701314z" p-id="5256"></path><path d="M990.953574 950.985833a33.031786 33.031786 0 0 1-33.031786-33.031785V516.61665a33.031786 33.031786 0 0 1 64.081585 0v402.327391a33.031786 33.031786 0 0 1-31.049799 32.040792z m-382.837517 0a33.031786 33.031786 0 0 1-33.031786-33.031785V516.61665a33.031786 33.031786 0 0 1 64.081584 0v402.327391a33.031786 33.031786 0 0 1-31.049798 32.040792z" p-id="5257"></path></svg>